<?xml version="1.0" encoding="UTF-8"?>
<svg id="Layer_1" data-name="Layer 1" xmlns="http://www.w3.org/2000/svg" viewBox="0 0 1208.99796 354.0487">
  <defs>
    <style>
      .cls-1 {
        fill: #ff6300;
      }

      .cls-2 {
        fill: #000027;
      }

      .cls-3 {
        fill: #000027;
      }
    </style>
  </defs>
  <g>
    <path class="cls-3" d="M275.74304,105.7745l-18.93043,27.26172c9.64529,15.83289,15.2085,34.42821,15.2085,54.32218,0,21.59838-6.59519,41.63447-17.82255,58.29302l-14.09275,16.80451c-8.23399,7.96167-17.73857,14.62024-28.22789,19.5526-15.56319,7.31749-33.20971,10.93243-51.81431,9.65074-16.03759-1.10485-31.12355-5.91306-44.40921-13.55597l-17.7414,25.54903c17.72081,10.67019,38.02639,17.42284,59.70754,18.95405,26.20028,1.84916,50.93536-3.78673,72.34479-14.93072,43.42165-22.6025,74.53349-66.76361,74.53349-119.10198,0-30.63603-11.61738-60.09776-28.75579-82.79918Z"/>
    <path class="cls-1" d="M254.19844,245.65131l-48.52665-73.64263c-3.22415-4.89288-10.42949-4.86463-13.58515.0727-6.46116,10.10913-12.69064,21.59251-19.04265,31.57975-3.14013,4.9372-10.33651,4.98092-13.5739.10694l-11.86338-17.86066c-3.194-4.80867-10.25108-4.82751-13.4763-.03973-20.36252,30.22783-40.10945,59.542-60.15264,89.29569-2.44093,3.62352-1.5736,8.53417,1.96479,11.09694l2.65081,1.91992c3.68433,2.66847,8.84281,1.78271,11.42595-1.96195l46.27312-67.08011c3.08001-4.46496,9.59144-4.70308,12.98936-.47502l12.21408,11.87113c3.45779,4.30257,10.12107,3.97514,13.11697-.66091,5.77535-8.93714,11.30402-15.92039,16.94817-24.89573,3.20567-5.09767,10.66356-5.02016,13.78489.12959l34.75988,57.34876"/>
    <path class="cls-3" d="M216.16615,94.58787c5.50247-11.01339,13.69594-16.679,29.06858-21.30007,6.2097-1.86677,12.54906-3.30165,18.82177-4.96114,22.55326-5.9666,26.83905-11.58401,26.52882-34.75259-.01091-.82665-.11149-1.6521-.17038-2.47815-4.90503,9.54207-12.91576,15.31665-22.17905,19.64855-5.30736,2.48209-10.87939,4.41697-16.1121,7.0375-6.84834,3.42992-13.95334,6.56967-20.48247,10.50463-24.65216-10.79535-45.89155-15.22153-62.40284-15.22153-11.18817,0-22.05859,1.35011-32.46246,3.88158-15.18893,3.71283-29.37518,9.95718-42.08226,18.27632-.46656.29781-.93311.61549-1.39967.93318-.56593.38712-1.12168.7743-1.67767,1.15155-37.06889,26.0296-60.49734,70.1369-57.49926,119.5057,1.53855,25.34455,10.19519,48.88237,23.96457,68.65767l20.58936-25.38424.38706-.47656c-8.78558-15.16899-13.80889-32.77026-13.80889-51.53296,0-57.1122,46.55927-103.42335,103.98922-103.42335,11.51536,0,32.33158,4.11201,43.02362,8.73189"/>
    <path class="cls-1" d="M229.78381,84.17064c-7.32531,3.4012-11.47465,10.15126-13.07621,18.33667,8.65543-12.97787,22.006-16.03309,36.01968-17.93089,5.40261-.65051,10.75094-1.69282,16.00255-3.1186,6.46491-1.54309,11.74028-6.19758,14.07694-12.41964-9.7599,2.23245-18.80868,3.94053-27.63862,6.42504-8.67966,2.22233-17.1681,5.13407-25.38436,8.70741Z"/>
    <path class="cls-1" d="M230.30005,94.55542c-6.25429,2.52947-10.9046,7.91996-12.48968,14.47746,9.47681-10.27135,21.73624-10.69507,34.23998-10.88642,4.37207.01012,8.69784-.89125,12.70199-2.64671,3.44186-1.63441,5.99981-5.12728,8.94748-7.8006-8.07059-.00885-16.12786.65367-24.0889,1.98075-6.58561.96602-13.05585,2.59963-19.31087,4.87552Z"/>
    <path class="cls-1" d="M219.21853,114.4198c13.34427-6.36221,28.24575.02333,40.17629-10.30904-20.76435-3.4212-32.96343-.56956-40.17629,10.30904Z"/>
  </g>
  <g>
    <path class="cls-2" d="M386.81383,173.17605v-98.46875h29.73047c9.70898,0,18.2627,1.84583,25.4248,5.48621,7.2002,3.66235,12.85938,9.1499,16.81934,16.31018,3.94531,7.13367,5.94531,16.05432,5.94531,26.51428,0,10.98328-2.03027,20.3009-6.03418,27.69409-4.02539,7.43298-9.93262,13.10278-17.55664,16.85168-7.57227,3.724-16.7959,5.6123-27.41504,5.6123h-26.91406ZM415.54235,154.27077c9.12012,0,15.96973-2.5686,20.3584-7.63464,4.42383-5.10876,6.66797-12.87756,6.66797-23.09033,0-6.95264-.97266-12.73376-2.89062-17.18274-1.88281-4.3678-4.68652-7.63684-8.33301-9.71631-3.68848-2.10095-8.33105-3.16626-13.7998-3.16626h-9.31738v60.79028h7.31445Z"/>
    <path class="cls-2" d="M537.55016,174.49551c-7.56836,0-14.22949-1.21521-19.79688-3.61169-5.58887-2.40552-10.27637-5.91052-13.93262-10.41772-3.63477-4.48218-6.38184-9.90735-8.16406-16.12476-1.76953-6.1748-2.66699-13.12695-2.66699-20.66357,0-10.0719,1.59473-18.98181,4.74023-26.4823,3.1748-7.57043,8.1377-13.5304,14.75195-17.71399,6.59961-4.1748,15.07617-6.29163,25.19336-6.29163,10.07812,0,18.50293,2.11768,25.04102,6.29407,6.54883,4.18359,11.47949,10.15405,14.6543,17.74561,3.14551,7.52393,4.74023,16.4668,4.74023,26.5802,0,7.49292-.89746,14.41211-2.66699,20.56543-1.78223,6.19507-4.5293,11.60876-8.16406,16.09082-3.65527,4.50659-8.34277,8.01172-13.93262,10.41785-5.56836,2.39648-12.22949,3.61169-19.79688,3.61169ZM537.67516,92.22707c-5.21289,0-9.50293,1.25146-12.74902,3.71985-3.26172,2.47949-5.69238,6.08936-7.22559,10.72913-1.56445,4.7345-2.3584,10.49915-2.3584,17.13367,0,6.59167.79395,12.33398,2.3584,17.0675,1.5332,4.64209,3.9541,8.25256,7.19629,10.73108,3.22363,2.46729,7.48145,3.71814,12.65332,3.71814,5.25391,0,9.55371-1.25085,12.7793-3.71802,3.23828-2.47754,5.6377-6.08545,7.12988-10.72363,1.52539-4.73682,2.29883-10.48169,2.29883-17.07507,0-9.87708-1.76074-17.73401-5.23145-23.35254-3.42285-5.53796-8.93457-8.2301-16.85156-8.2301Z"/>
    <path class="cls-2" d="M634.23082,173.17605l-31.68555-98.46875h21.71875l17.42383,58.11523c.29688.98425.77148,2.77954,1.45117,5.48669.67676,2.69983,1.3623,5.54688,2.03906,8.46228.14551.62744.28125,1.23401.4082,1.8186.11719-.57141.24316-1.16309.37793-1.77417.64746-2.953,1.30273-5.79053,1.94531-8.43359.6416-2.64563,1.11914-4.51306,1.41797-5.5498l17.55371-58.12524h21.71875l-31.75,98.46875h-22.61914Z"/>
    <polygon class="cls-2" points="713.09996 173.17605 713.09996 74.7073 767.80406 74.7073 767.80406 93.48049 734.51403 93.48049 734.51403 112.64175 765.48863 112.64175 765.48863 131.41506 734.51403 131.41506 734.51403 154.27077 767.80406 154.27077 767.80406 173.17605 713.09996 173.17605"/>
    <path class="cls-2" d="M800.25231,173.17605v-98.46875h30.23047c12.02539,0,20.95801,2.79443,26.55176,8.30566,5.59668,5.51575,8.43457,13.18213,8.43457,22.78613,0,4.30664-.62598,8.48132-1.86035,12.40833-1.24805,3.9707-3.31152,7.54932-6.13086,10.63635-2.82715,3.09436-6.63086,5.56848-11.30469,7.35388-4.63867,1.77319-10.42285,2.67236-17.19238,2.67236h-7.31445v34.30603h-21.41406ZM827.04137,120.0967c3.49121,0,6.5498-.48853,9.0918-1.4519,2.45996-.93176,4.38281-2.40308,5.7168-4.3728,1.33887-1.9751,2.01758-4.58154,2.01758-7.74731,0-4.4353-1.1543-7.74854-3.43066-9.84753-2.29883-2.12122-5.98535-3.19666-10.95508-3.19666h-7.81543v26.61621h5.375Z"/>
    <polygon class="cls-2" points="896.10289 173.17605 896.10289 74.7073 950.80699 74.7073 950.80699 93.48049 917.51696 93.48049 917.51696 112.64175 948.49156 112.64175 948.49156 131.41506 917.51696 131.41506 917.51696 154.27077 950.80699 154.27077 950.80699 173.17605 896.10289 173.17605"/>
    <path class="cls-2" d="M1039.5111,173.17605l-6.63281-22.95862h-31.83691l-6.63281,22.95862h-23.05664l32.96094-98.86462h25.16797l33.08887,98.86462h-23.05859ZM1027.6566,131.04824l-6.25098-21.13684c-.41992-1.50659-.97168-3.42712-1.65918-5.77551-.68945-2.35535-1.37793-4.75623-2.06641-7.20044-.24512-.86743-.47363-1.69653-.68359-2.48486-.23047.87695-.48145,1.81372-.75293,2.80725-.73145,2.66418-1.43164,5.18347-2.09863,7.5603-.66895,2.37854-1.14941,4.07446-1.44141,5.08704l-6.19336,21.14307h21.14648Z"/>
    <path class="cls-2" d="M1139.04821,173.17605l-23.68457-40.16125-6.89551,5.21655v34.9447h-21.41406v-98.46875h21.41406v41.86328c.66211-.98303,1.31836-1.96606,1.96875-2.94934,1.25391-1.89465,2.5293-3.79053,3.82617-5.6864l25.10938-33.22754h24.04102l-32.71484,43.755,32.72949,54.71375h-24.37988Z"/>
  </g>
  <g>
    <polygon class="cls-1" points="400.86363 280.43337 400.86363 218.40823 379.90367 218.40823 379.90367 206.95022 434.97789 206.95022 434.97789 218.40823 414.06676 218.40823 414.06676 280.43337 400.86363 280.43337"/>
    <path class="cls-1" d="M481.76598,281.41946c-5.41113,0-10.24023-1.07971-14.35254-3.20923-4.1377-2.14099-7.41602-5.38049-9.74414-9.6283-2.31543-4.22534-3.48926-9.53076-3.48926-15.7688,0-6.19092,1.06152-11.53491,3.1543-15.88379,2.1084-4.37842,5.11621-7.7627,8.93848-10.05884,3.81641-2.29102,8.32031-3.45264,13.3877-3.45264,4.93262,0,9.23535,1.04358,12.78906,3.10181,3.56348,2.06543,6.3418,5.03271,8.25684,8.81958,1.90137,3.76404,2.86621,8.31604,2.86621,13.52954v6.91223h-36.16406c.23145,4.74512,1.58203,8.45947,4.01953,11.04761,2.54297,2.70032,6.18555,4.06958,10.82715,4.06958,3.38965,0,6.47266-.33337,9.16309-.99084,2.7041-.65991,5.53906-1.64966,8.42578-2.94177l.98633-.44128v10.94055l-.40039.18958c-2.74707,1.29919-5.58398,2.26233-8.43164,2.86255-2.8418.59888-6.28418.90247-10.23242.90247ZM490.89,246.09805c-.09473-2.34155-.52246-4.45166-1.27539-6.28162-.80859-1.96472-2.04004-3.51819-3.66211-4.61719-1.62109-1.09778-3.73828-1.65454-6.29199-1.65454-3.45508,0-6.16406,1.08948-8.28223,3.33081-1.99023,2.10608-3.22559,5.20605-3.67871,9.22253h23.19043Z"/>
    <path class="cls-1" d="M551.73278,281.41946c-5.21875,0-9.81152-1.03967-13.65039-3.09009-3.86816-2.06519-6.88574-5.27161-8.9668-9.53003-2.06152-4.21814-3.10742-9.62976-3.10742-16.08484,0-6.72437,1.14746-12.30847,3.41113-16.59717,2.27832-4.31763,5.48535-7.55273,9.5332-9.6156,4.01562-2.04639,8.67773-3.08386,13.8584-3.08386,3.27148,0,6.28418.33008,8.95605.98132,2.66309.64966,4.96289,1.45605,6.83301,2.39673l.55957.28113-3.89746,10.53748-.6709-.27673c-1.95508-.80591-3.98535-1.4928-6.03613-2.04187-2.02246-.54041-3.98828-.81445-5.84277-.81445-3.00977,0-5.53906.67346-7.51953,2.00146-1.9707,1.32324-3.46289,3.3324-4.43359,5.97156-.99512,2.70251-1.49902,6.12134-1.49902,10.16138,0,3.9082.51172,7.23328,1.52051,9.88293.98828,2.59534,2.46582,4.57446,4.3916,5.88245,1.92871,1.31018,4.35059,1.97461,7.19727,1.97461,2.8877,0,5.50488-.35461,7.77637-1.05383,2.29395-.70508,4.49023-1.63171,6.52832-2.75439l1.03809-.57141v11.64746l-.35156.2019c-2.10547,1.21155-4.39062,2.12366-6.79395,2.71106-2.39551.58582-5.36816.88281-8.83398.88281Z"/>
    <path class="cls-1" d="M629.17809,280.43337v-34.12842c0-4.05493-.82031-7.11584-2.4375-9.0979-1.58301-1.93933-4.10254-2.92273-7.48926-2.92273-3.32715,0-5.9834.69409-7.89258,2.06299-1.9043,1.36511-3.29102,3.41663-4.12207,6.09741-.85645,2.76489-1.29102,6.18701-1.29102,10.17114v27.8175h-12.9082v-78.1178h12.9082v19.97803c0,2.0155-.05859,4.00366-.17188,5.90906-.06348,1.04663-.12988,1.97107-.19727,2.76672,1.02051-1.42346,2.21484-2.64478,3.56152-3.64233,1.72168-1.27441,3.68066-2.2478,5.82227-2.89331,2.13184-.64148,4.43164-.96655,6.83789-.96655,4.23145,0,7.89258.72815,10.88184,2.16443,3.0293,1.45752,5.38477,3.74084,6.99902,6.78662,1.59766,3.01648,2.4082,6.95862,2.4082,11.71729v36.29785h-12.90918Z"/>
    <path class="cls-1" d="M706.93102,280.43337v-34.12842c0-4.05493-.82031-7.11584-2.4375-9.0979-1.58301-1.93933-4.10254-2.92273-7.48926-2.92273-4.97559,0-8.45801,1.53186-10.35254,4.55298-1.95996,3.12634-2.95312,7.76208-2.95312,13.77856v27.8175h-12.9082v-55.9801h10.22559l1.53809,7.0415c1.14258-1.67725,2.5293-3.09656,4.13086-4.22644,1.80176-1.27173,3.84863-2.24292,6.08594-2.88635,2.22559-.63977,4.57324-.96411,6.97656-.96411,6.25879,0,11.22168,1.66382,14.75098,4.94519,3.54492,3.29553,5.3418,8.60217,5.3418,15.77246v36.29785h-12.90918Z"/>
    <path class="cls-1" d="M771.47692,281.41946c-3.79492,0-7.32715-.65601-10.49902-1.94995-3.17969-1.29663-5.97266-3.21143-8.30176-5.69116-2.32617-2.4762-4.14746-5.55334-5.41406-9.14587-1.26172-3.57434-1.90137-7.71692-1.90137-12.31238,0-6.09631,1.07031-11.35144,3.18262-15.61951,2.12598-4.29785,5.21094-7.62439,9.16797-9.88696,3.94336-2.2533,8.68945-3.39575,14.10938-3.39575,5.09473,0,9.66113,1.14282,13.57129,3.39697,3.9209,2.26074,7.02832,5.59216,9.23535,9.90173,2.19629,4.28723,3.30957,9.53711,3.30957,15.60352,0,4.5896-.60547,8.72839-1.79883,12.30139-1.20215,3.59668-2.9834,6.67688-5.29492,9.15515-2.31348,2.4812-5.13379,4.39709-8.38086,5.6947-3.23633,1.29272-6.93262,1.94812-10.98535,1.94812ZM771.62438,234.33364c-4.5625,0-7.78418,1.48022-9.85156,4.52502-2.09668,3.08728-3.16016,7.61633-3.16016,13.46143,0,3.88196.47363,7.23987,1.40723,9.98035.91113,2.67676,2.33594,4.74463,4.23438,6.14612,1.89062,1.39783,4.38672,2.10657,7.41895,2.10657,3.03125,0,5.52734-.70874,7.41992-2.10657,1.89648-1.40125,3.3125-3.46802,4.20801-6.14282.91797-2.74231,1.38379-6.10132,1.38379-9.98364,0-3.88025-.46484-7.21326-1.38281-9.90637-.89453-2.62415-2.30859-4.64917-4.20312-6.0188-1.89453-1.36768-4.40918-2.06128-7.47461-2.06128Z"/>
    <rect class="cls-1" x="823.80016" y="202.31557" width="12.95703" height="78.1178"/>
    <path class="cls-1" d="M888.73668,281.41946c-3.79492,0-7.32715-.65601-10.49902-1.94995-3.17969-1.29663-5.97266-3.21143-8.30176-5.69116-2.32617-2.4762-4.14746-5.55334-5.41406-9.14587-1.26172-3.57434-1.90137-7.71692-1.90137-12.31238,0-6.09631,1.07031-11.35144,3.18262-15.61951,2.12598-4.29785,5.21094-7.62439,9.16797-9.88696,3.94336-2.2533,8.68945-3.39575,14.10938-3.39575,5.09473,0,9.66113,1.14282,13.57129,3.39697,3.9209,2.26074,7.02832,5.59216,9.23535,9.90173,2.19629,4.28723,3.30957,9.53711,3.30957,15.60352,0,4.5896-.60547,8.72839-1.79883,12.30139-1.20215,3.59668-2.9834,6.67688-5.29492,9.15515-2.31348,2.4812-5.13379,4.39709-8.38086,5.6947-3.23633,1.29272-6.93262,1.94812-10.98535,1.94812ZM888.88414,234.33364c-4.5625,0-7.78418,1.48022-9.85156,4.52502-2.09668,3.08728-3.16016,7.61633-3.16016,13.46143,0,3.88196.47363,7.23987,1.40723,9.98035.91113,2.67676,2.33594,4.74463,4.23438,6.14612,1.89062,1.39783,4.38672,2.10657,7.41895,2.10657,3.03125,0,5.52734-.70874,7.41992-2.10657,1.89648-1.40125,3.3125-3.46802,4.20801-6.14282.91797-2.74231,1.38379-6.10132,1.38379-9.98364,0-3.88025-.46484-7.21326-1.38281-9.90637-.89453-2.62415-2.30859-4.64917-4.20312-6.0188-1.89453-1.36768-4.40918-2.06128-7.47461-2.06128Z"/>
    <path class="cls-1" d="M957.23473,304.69119c-7.4541,0-13.27148-1.38428-17.28906-4.11462-4.10254-2.78857-6.18262-6.7489-6.18262-11.77112,0-3.51636,1.11523-6.53552,3.31445-8.97375,1.86133-2.06555,4.42578-3.60022,7.63867-4.57446-.93262-.64124-1.77344-1.45154-2.50977-2.42249-1.15039-1.51379-1.73438-3.22388-1.73438-5.08228,0-2.19055.62793-4.09497,1.86523-5.6604.99707-1.26233,2.41895-2.49634,4.23438-3.6781-2.4248-1.28748-4.42871-3.18298-5.96875-5.64917-1.77637-2.8446-2.67773-6.229-2.67773-10.05908,0-4.05347.87402-7.56689,2.59766-10.44263,1.73145-2.88843,4.29102-5.12146,7.60645-6.63708,3.27734-1.49792,7.28027-2.25745,11.89746-2.25745.99414,0,2.0957.0592,3.27637.1759,1.17578.11743,2.27441.25159,3.26562.39868.97754.14526,1.72461.29639,2.2793.46082h19.35156v7.73987l-8.74805,1.63965c.65039,1.07739,1.19141,2.26782,1.6123,3.55188.54297,1.66003.81836,3.48328.81836,5.41968,0,5.84436-2.03711,10.51221-6.05371,13.87366-3.98047,3.33081-9.51074,5.01965-16.43848,5.01965-1.58203-.06287-3.11621-.18665-4.58984-.36853-.99023.63635-1.75781,1.33252-2.28418,2.07153-.53809.7561-.7998,1.58301-.7998,2.52747,0,.68225.22559,1.21143.69043,1.61792.52637.46082,1.35254.81421,2.45312,1.05042,1.16797.25146,2.62598.37891,4.33398.37891h9.35352c6.07812,0,10.80664,1.32947,14.05371,3.95178,3.29297,2.65942,4.96191,6.59155,4.96191,11.68738,0,6.43298-2.67578,11.46497-7.9541,14.95618-5.18555,3.43042-12.71289,5.1698-22.37402,5.1698ZM955.76598,280.18679c-2.02148,0-3.82617.32227-5.36426.95776-1.49902.61804-2.67285,1.52258-3.49023,2.68848-.80957,1.15613-1.21973,2.58032-1.21973,4.23291,0,2.25647.97168,3.94812,2.9707,5.17151,2.08301,1.27295,5.11523,1.91858,9.01367,1.91858,3.93164,0,7.27637-.38892,9.94336-1.15601,2.6084-.75049,4.59668-1.82373,5.9082-3.18958,1.28516-1.33997,1.91016-2.88293,1.91016-4.7168,0-1.58533-.38184-2.80225-1.13574-3.6167-.77637-.8396-1.98535-1.43237-3.59375-1.76196-1.70996-.35046-3.87109-.5282-6.42188-.5282h-8.52051ZM959.87926,232.36147c-3.01074,0-5.31445.86731-6.84863,2.57776-1.55566,1.73254-2.34375,4.37866-2.34375,7.86511,0,3.12573.78711,5.58032,2.34082,7.29541,1.53516,1.69592,3.85645,2.55579,6.90039,2.55579,3.13672,0,5.48145-.8573,6.96777-2.54797,1.50879-1.71667,2.27344-4.20703,2.27344-7.40186,0-3.48328-.78613-6.11133-2.33789-7.81128-1.53711-1.68054-3.87598-2.53296-6.95215-2.53296Z"/>
    <path class="cls-1" d="M1010.68395,280.43337v-55.9801h12.9082v55.9801h-12.9082ZM1017.21129,217.6686c-1.97852,0-3.67969-.53833-5.05566-1.60022-1.43164-1.10364-2.15723-2.94067-2.15723-5.45996,0-2.55322.72754-4.39966,2.16211-5.48804,1.37598-1.04333,3.0752-1.57227,5.05078-1.57227,1.90723,0,3.58789.5271,4.99512,1.56689,1.47266,1.08923,2.21875,2.9375,2.21875,5.49341,0,2.52209-.74512,4.36084-2.21387,5.46533-1.4082,1.05823-3.08984,1.59485-5,1.59485Z"/>
    <path class="cls-1" d="M1077.0902,281.41946c-5.41113,0-10.24023-1.07971-14.35254-3.20923-4.1377-2.14099-7.41602-5.38049-9.74414-9.6283-2.31543-4.22534-3.48926-9.53076-3.48926-15.7688,0-6.19092,1.06152-11.53491,3.1543-15.88379,2.1084-4.37842,5.11621-7.7627,8.93848-10.05884,3.81641-2.29102,8.32031-3.45264,13.3877-3.45264,4.93262,0,9.23535,1.04358,12.78906,3.10181,3.56348,2.06543,6.3418,5.03271,8.25684,8.81958,1.90137,3.76404,2.86621,8.31604,2.86621,13.52954v6.91223h-36.16406c.23145,4.74512,1.58203,8.45947,4.01953,11.04761,2.54297,2.70032,6.18555,4.06958,10.82715,4.06958,3.38965,0,6.47266-.33337,9.16309-.99084,2.7041-.65991,5.53906-1.64966,8.42578-2.94177l.98633-.44128v10.94055l-.40039.18958c-2.74707,1.29919-5.58398,2.26233-8.43164,2.86255-2.8418.59888-6.28418.90247-10.23242.90247ZM1086.21422,246.09805c-.09473-2.34155-.52246-4.45166-1.27539-6.28162-.80859-1.96472-2.04004-3.51819-3.66211-4.61719-1.62109-1.09778-3.73828-1.65454-6.29199-1.65454-3.45508,0-6.16406,1.08948-8.28223,3.33081-1.99023,2.10608-3.22559,5.20605-3.67871,9.22253h23.19043Z"/>
    <path class="cls-1" d="M1139.31969,281.41946c-3.81543,0-7.14844-.2782-9.90625-.8269-2.76953-.5509-5.41699-1.40588-7.87012-2.54114l-.40625-.18787v-11.56055l.99902.47119c2.52832,1.19324,5.41504,2.24084,8.58008,3.11377,3.13867.86658,6.14941,1.30603,8.94629,1.30603,3.62012,0,6.23438-.56104,7.76953-1.66748,1.48438-1.06958,2.20605-2.45618,2.20605-4.23938,0-1.04297-.28516-1.95007-.87305-2.77319-.60449-.84558-1.77832-1.75513-3.49121-2.70349-1.77734-.98315-4.42871-2.19019-7.88184-3.58728-3.44336-1.38721-6.3916-2.79602-8.75977-4.18689-2.44043-1.43372-4.31836-3.19678-5.5791-5.24048-1.27148-2.0575-1.91602-4.71106-1.91602-7.8866,0-5.0592,2.02539-8.96313,6.01953-11.60352,3.90137-2.57971,9.11426-3.88782,15.49316-3.88782,3.36328,0,6.58691.34595,9.58203,1.0282,2.98828.68176,5.95801,1.68384,8.8252,2.97827l.61914.2793-4.1582,10.01562-.65527-.29016c-2.40625-1.06543-4.85547-1.95837-7.28125-2.65417-2.39062-.68542-4.85547-1.03296-7.32324-1.03296-2.8291,0-4.99121.43152-6.4248,1.28247-1.33496.79187-1.9834,1.88513-1.9834,3.34241,0,1.1228.31348,2.03918.95996,2.80164.68457.80872,1.91699,1.64441,3.66309,2.48413,1.82617.87903,4.40625,1.98376,7.66797,3.28394,3.24512,1.25464,6.10352,2.58899,8.48926,3.9635,2.4541,1.41455,4.37109,3.17456,5.69824,5.23145,1.3418,2.07776,2.02246,4.77673,2.02246,8.02173,0,3.71277-.91602,6.90039-2.72266,9.47424-1.80469,2.57031-4.45898,4.53784-7.88867,5.84778-3.38086,1.29016-7.55957,1.94421-12.41992,1.94421Z"/>
  </g>
</svg>